<?xml version="1.0" standalone="no"?>
<!DOCTYPE svg PUBLIC "-//W3C//DTD SVG 20010904//EN"
 "http://www.w3.org/TR/2001/REC-SVG-20010904/DTD/svg10.dtd">
<svg version="1.0" xmlns="http://www.w3.org/2000/svg"
 width="256.000000pt" height="256.000000pt" viewBox="0 0 256.000000 256.000000"
 preserveAspectRatio="xMidYMid meet">
<metadata>
Created by potrace 1.11, written by Peter Selinger 2001-2013
</metadata>
<g transform="translate(0.000000,256.000000) scale(0.100000,-0.100000)"
fill="#000000" stroke="none">
<path d="M105 2541 c-48 -22 -69 -44 -90 -94 -13 -32 -15 -173 -15 -1172 0
-1095 1 -1137 19 -1173 23 -46 46 -67 94 -87 32 -13 173 -15 1177 -15 1231 0
1166 -3 1217 52 55 59 53 2 53 1228 0 995 -2 1135 -15 1167 -21 50 -42 72 -90
94 -38 18 -95 19 -1175 19 -1080 0 -1137 -1 -1175 -19z m315 -187 c17 -15 42
-47 55 -73 29 -56 56 -87 118 -136 l48 -38 25 24 24 25 -30 46 c-16 25 -47 65
-68 89 -22 24 -44 54 -51 67 l-12 22 687 0 686 0 -6 -25 c-4 -14 -22 -58 -41
-98 -43 -91 -44 -107 -7 -107 15 0 34 6 42 13 16 12 59 80 95 150 35 67 38 68
179 65 l127 -3 -82 -110 c-98 -132 -169 -243 -169 -266 0 -20 17 -28 42 -21 9
2 39 34 66 71 27 37 89 117 138 177 l89 108 3 -118 3 -118 -113 -117 c-63 -64
-121 -132 -131 -153 -19 -40 -22 -74 -7 -83 6 -3 64 47 130 113 l120 119 0
-326 0 -327 -95 4 c-82 4 -96 2 -101 -12 -11 -29 11 -38 103 -40 l88 -1 3
-112 3 -112 -73 24 c-40 13 -91 30 -113 39 -86 33 -151 12 -109 -35 22 -25
164 -94 214 -104 19 -4 45 -15 57 -24 22 -16 22 -18 23 -303 0 -159 -4 -288
-9 -288 -4 0 -44 27 -87 60 -43 34 -101 76 -129 94 -27 19 -59 43 -69 55 -33
37 -66 23 -66 -29 0 -27 166 -178 270 -246 77 -51 90 -63 90 -86 l0 -28 -1100
0 -1100 0 0 118 c0 116 0 119 28 143 37 35 116 83 182 112 30 14 66 37 80 52
24 26 25 27 6 41 -11 8 -27 14 -35 14 -34 0 -118 -32 -188 -70 l-73 -41 0 295
0 294 23 6 c12 3 67 6 122 6 107 0 129 7 123 36 -6 32 -47 44 -160 44 l-108 0
0 90 c0 50 1 90 3 90 2 0 35 -11 73 -23 103 -35 139 -40 154 -22 22 27 -2 62
-52 75 -24 6 -73 20 -110 31 l-68 20 0 310 0 310 30 -21 c16 -11 53 -43 82
-69 66 -60 157 -121 180 -121 26 0 40 34 27 63 -6 13 -65 62 -130 107 -66 46
-135 97 -154 115 -34 31 -35 33 -35 113 l0 82 104 0 c98 0 106 -2 136 -26z"/>
<path d="M1210 2292 c-39 -20 -80 -89 -80 -133 0 -28 41 -96 71 -117 11 -7 19
-20 19 -29 0 -12 -7 -14 -37 -8 -21 4 -76 9 -122 12 -76 4 -85 3 -107 -18 -19
-18 -24 -33 -24 -70 0 -38 -5 -51 -24 -66 -16 -12 -26 -30 -28 -53 -3 -30 0
-35 19 -38 36 -5 53 -40 53 -106 0 -40 5 -65 16 -77 22 -24 10 -55 -26 -67
-18 -7 -36 -25 -49 -51 -12 -22 -29 -45 -40 -50 -35 -19 -133 -150 -147 -197
-42 -141 9 -343 110 -432 57 -50 153 -101 222 -118 35 -9 64 -19 64 -23 0 -4
-21 -27 -47 -52 -77 -72 -156 -232 -151 -303 l3 -41 399 -3 c220 -1 404 2 408
6 5 5 2 29 -6 53 -8 24 -18 60 -21 81 -4 20 -18 46 -31 59 -13 12 -24 31 -24
42 0 11 -27 53 -61 94 l-60 73 28 12 c200 84 280 145 329 250 26 56 29 73 27
146 -4 142 -42 223 -172 370 -63 72 -94 115 -102 145 -7 23 -16 46 -21 51 -25
30 18 92 70 102 73 13 92 30 92 86 0 30 -5 39 -27 50 -21 10 -27 20 -26 38 3
37 -5 67 -23 84 -12 13 -40 16 -140 16 -113 0 -124 2 -124 18 0 10 14 31 30
47 55 53 36 162 -38 223 -25 19 -160 16 -202 -6z m140 -113 c12 -27 11 -33 -9
-52 -20 -20 -23 -21 -49 -7 -50 28 -37 90 18 90 21 0 30 -7 40 -31z m141 -530
c4 -63 7 -117 8 -121 0 -4 26 -36 57 -70 85 -95 139 -167 174 -236 28 -53 33
-74 38 -155 l5 -94 -38 -42 c-54 -60 -127 -110 -208 -143 -68 -28 -79 -30
-210 -29 -131 1 -145 3 -255 37 -131 42 -172 71 -212 151 -28 57 -37 161 -20
232 14 61 96 181 177 258 71 69 83 100 83 222 l0 101 188 2 c103 2 192 3 197
2 6 0 13 -50 16 -115z m-80 -1039 c41 -11 139 -108 139 -136 0 -16 -13 -17
-157 -11 -87 4 -200 7 -251 7 l-93 0 32 45 c18 25 37 45 43 45 6 0 27 11 47
24 19 13 49 26 65 29 57 8 139 7 175 -3z"/>
<path d="M1273 1551 c-108 -60 -184 -143 -233 -254 -39 -89 -36 -226 8 -315
20 -41 98 -113 148 -137 54 -26 140 -31 197 -11 77 26 93 41 131 131 32 75 36
92 36 173 0 97 -12 122 -61 122 -19 0 -84 30 -90 42 -1 2 -5 64 -8 138 l-6
135 -35 3 c-24 1 -52 -7 -87 -27z m28 -226 c3 -76 8 -128 16 -136 6 -6 41 -14
78 -17 l67 -5 -5 -54 c-7 -70 -42 -140 -81 -165 -24 -15 -44 -18 -86 -15 -50
4 -57 8 -97 51 -57 63 -78 133 -64 210 20 106 111 254 157 256 8 0 13 -39 15
-125z"/>
</g>
</svg>
